<?xml version="1.0" encoding="UTF-8"?>
<svg version="1.1" xmlns="http://www.w3.org/2000/svg" width="626" height="626">
<path d="M0 0 C206.58 0 413.16 0 626 0 C626 206.58 626 413.16 626 626 C419.42 626 212.84 626 0 626 C0 419.42 0 212.84 0 0 Z " fill="#FEFEFE" transform="translate(0,0)"/>
<path d="M0 0 C3.77854787 3.19490241 7.51257709 6.38624953 11.00756836 9.89404297 C11.70776596 10.5943161 12.40796356 11.29458923 13.12937927 12.01608276 C13.85883255 12.75069733 14.58828583 13.48531189 15.33984375 14.2421875 C16.10680069 15.01055939 16.87375763 15.77893127 17.66395569 16.57058716 C20.0908474 19.00303509 22.51422127 21.43895322 24.9375 23.875 C26.59156486 25.53408552 28.24585945 27.19294202 29.90039062 28.8515625 C33.93625433 32.89839709 37.96924277 36.94807953 42 41 C40.65272739 43.79570164 39.40293767 45.83967803 37.1796875 48.015625 C36.64472656 48.54414063 36.10976563 49.07265625 35.55859375 49.6171875 C35.00300781 50.15601563 34.44742188 50.69484375 33.875 51.25 C33.31167969 51.80429688 32.74835938 52.35859375 32.16796875 52.9296875 C30.78313972 54.29104485 29.39216796 55.64614859 28 57 C23.86278507 53.59977882 20.02614954 50.07207741 16.30078125 46.22265625 C15.48416016 45.38025391 14.66753906 44.53785156 13.82617188 43.66992188 C12.13106721 41.91159652 10.44370839 40.14577506 8.76367188 38.37304688 C7.95091797 37.53966797 7.13816406 36.70628906 6.30078125 35.84765625 C5.20503784 34.7030896 5.20503784 34.7030896 4.0871582 33.53540039 C2.17414092 31.76888237 2.17414092 31.76888237 0.10604477 32.19009304 C-2.48132191 33.18509861 -3.82833189 34.45909055 -5.78387451 36.42311096 C-6.52140457 37.15651703 -7.25893463 37.8899231 -8.01881409 38.64555359 C-9.21751381 39.86043205 -9.21751381 39.86043205 -10.44042969 41.09985352 C-11.7141468 42.37291351 -11.7141468 42.37291351 -13.01359558 43.67169189 C-15.33903188 45.9988603 -17.65761106 48.33248665 -19.97340679 50.66922498 C-22.39570492 53.1102749 -24.82649946 55.54283371 -27.25640869 57.9763031 C-31.8557644 62.58498367 -36.44741923 67.20125828 -41.03636193 71.82030481 C-46.26138549 77.07885863 -51.49492856 82.32889801 -56.72920752 87.5782367 C-67.49565158 98.37603977 -78.25133731 109.18449459 -89 120 C-87.59186573 123.18963306 -85.91953332 125.3280734 -83.45663452 127.78387451 C-82.35446342 128.8901696 -82.35446342 128.8901696 -81.23002625 130.01881409 C-80.0205407 131.21751381 -80.0205407 131.21751381 -78.78662109 132.44042969 C-77.9377684 133.28957443 -77.08891571 134.13871918 -76.21434021 135.01359558 C-73.88961079 137.33717119 -71.56050655 139.65625126 -69.22938108 141.97340679 C-66.79278611 144.39749135 -64.36186129 146.82724848 -61.93032837 149.25640869 C-57.32677578 153.85374743 -52.71814913 158.44596453 -48.10767615 163.03636193 C-42.8583182 168.26335793 -37.61464448 173.49604043 -32.3714397 178.72920752 C-21.58727064 189.49247673 -10.79598816 200.24858507 0 211 C3.77854787 207.80509759 7.51257709 204.61375047 11.00756836 201.10595703 C12.05786476 200.05554733 12.05786476 200.05554733 13.12937927 198.98391724 C13.85883255 198.24930267 14.58828583 197.51468811 15.33984375 196.7578125 C16.10680069 195.98944061 16.87375763 195.22106873 17.66395569 194.42941284 C20.0908474 191.99696491 22.51422127 189.56104678 24.9375 187.125 C26.59156486 185.46591448 28.24585945 183.80705798 29.90039062 182.1484375 C33.93625433 178.10160291 37.96924277 174.05192047 42 170 C40.49315032 166.46760977 38.44633388 164.2037834 35.73388672 161.50683594 C34.85312469 160.62622498 33.97236267 159.74561401 33.06491089 158.83831787 C32.10327649 157.88689569 31.1415328 156.93558397 30.1796875 155.984375 C29.19561893 155.00403871 28.21199258 154.02325832 27.22879028 153.04205322 C24.64557286 150.46645533 22.05640488 147.89692143 19.46594238 145.32861328 C16.8213238 142.70448933 14.1823899 140.07466229 11.54296875 137.4453125 C6.36751928 132.2912833 1.18576878 127.14364843 -4 122 C1.35640879 115.49449856 7.27522969 109.59039531 13.23779297 103.64868164 C14.37188348 102.51487361 15.50575304 101.38084453 16.63941956 100.24661255 C19.70078172 97.18496477 22.76520601 94.12639892 25.83020926 91.06839681 C29.03908675 87.86579228 32.24511175 84.66033476 35.45144653 81.45518494 C41.5159967 75.39373649 47.58309033 69.33484057 53.65111268 63.27686828 C60.56241322 56.37676495 67.47085711 49.47380452 74.37906814 42.57060826 C88.58287974 28.37723477 102.79025667 14.18743476 117 0 C123.50550144 5.35640879 129.40960469 11.27522969 135.35131836 17.23779297 C136.48512639 18.37188348 137.61915547 19.50575304 138.75338745 20.63941956 C141.81503523 23.70078172 144.87360108 26.76520601 147.93160319 29.83020926 C151.13420772 33.03908675 154.33966524 36.24511175 157.54481506 39.45144653 C163.60626351 45.5159967 169.66515943 51.58309033 175.72313172 57.65111268 C182.62323505 64.56241322 189.52619548 71.47085711 196.42939174 78.37906814 C210.62276523 92.58287974 224.81256524 106.79025667 239 121 C233.64359121 127.50550144 227.72477031 133.40960469 221.76220703 139.35131836 C220.62811652 140.48512639 219.49424696 141.61915547 218.36058044 142.75338745 C215.29921828 145.81503523 212.23479399 148.87360108 209.16979074 151.93160319 C205.96091325 155.13420772 202.75488825 158.33966524 199.54855347 161.54481506 C193.4840033 167.60626351 187.41690967 173.66515943 181.34888732 179.72313172 C174.43758678 186.62323505 167.52914289 193.52619548 160.62093186 200.42939174 C146.41712026 214.62276523 132.20974333 228.81256524 118 243 C114.23634224 239.81036699 110.50381867 236.6222335 106.9765625 233.16943359 C105.92142456 232.13839005 105.92142456 232.13839005 104.8449707 231.08651733 C101.7133769 227.99991027 98.58413694 224.91104358 95.46337891 221.81347656 C93.81209314 220.17888367 92.15544288 218.54969345 90.49365234 216.92578125 C88.08784309 214.57440207 85.69859495 212.20729918 83.3125 209.8359375 C82.56371582 209.10982269 81.81493164 208.38370789 81.04345703 207.6355896 C80.36524902 206.95453156 79.68704102 206.27347351 78.98828125 205.57177734 C78.38540283 204.97698578 77.78252441 204.38219421 77.16137695 203.76937866 C76 202 76 202 76.15185547 199.96743774 C77.60236789 196.60268943 80.25377028 194.23414599 82.8125 191.6875 C83.34681641 191.12482422 83.88113281 190.56214844 84.43164062 189.98242188 C86.01953125 188.38671875 86.01953125 188.38671875 89 186 C92.66273893 186.0331602 94.62928984 188.28822861 97.11236572 190.7724762 C97.61669128 191.29228561 98.12101685 191.81209503 98.640625 192.34765625 C99.16767029 192.87894638 99.69471558 193.41023651 100.23773193 193.95762634 C101.91567187 195.65232825 103.58286728 197.35717217 105.25 199.0625 C106.38732745 200.21487745 107.52534066 201.36657852 108.6640625 202.51757812 C111.45071992 205.33727184 114.22778792 208.16610588 117 211 C122.41513654 206.48231594 127.44070184 201.6966332 132.41381836 196.69970703 C133.62967117 195.48407326 133.62967117 195.48407326 134.87008667 194.24388123 C137.52905167 191.58422366 140.18446431 188.92104946 142.83984375 186.2578125 C144.69050087 184.40528887 146.54137997 182.55298696 148.39247131 180.70089722 C152.75395677 176.3363152 157.11288886 171.96919248 161.47088867 167.60113037 C166.43631671 162.62448894 171.4046161 157.65071823 176.37314785 152.67717576 C186.58527587 142.45462131 196.79382877 132.22850167 207 122 C205.59976788 118.84120799 203.9500498 116.69390333 201.52151489 114.24736023 C200.80092896 113.51679916 200.08034302 112.7862381 199.33792114 112.03353882 C198.54723236 111.24218536 197.75654358 110.45083191 196.94189453 109.63549805 C196.10922058 108.79450058 195.27654663 107.95350311 194.41864014 107.08702087 C192.1374348 104.78585902 189.85169453 102.48933746 187.56303644 100.19559073 C186.13379182 98.76270057 184.70585357 97.32852148 183.27834702 95.89389992 C178.29951024 90.89058994 173.31499796 85.89300734 168.32568359 80.90014648 C163.67176735 76.24258804 159.03116891 71.57203999 154.39638817 66.89544648 C150.41704799 62.88146749 146.42819495 58.87711058 142.43184745 54.88006431 C140.04477353 52.49219591 137.66187874 50.10048348 135.28863907 47.69885826 C132.6429952 45.02651495 129.98218757 42.37025504 127.31689453 39.7175293 C126.13693405 38.51531738 126.13693405 38.51531738 124.93313599 37.28881836 C124.2069104 36.57235641 123.48068481 35.85589447 122.73245239 35.11772156 C122.10454363 34.48780147 121.47663486 33.85788137 120.82969856 33.2088728 C119.06929219 31.77042575 119.06929219 31.77042575 116.89169502 32.20271683 C114.32732071 33.28351075 112.83152488 34.80931508 110.87402344 36.78540039 C109.67323151 37.98653221 109.67323151 37.98653221 108.44818115 39.21192932 C107.59387512 40.08171921 106.73956909 40.95150909 105.859375 41.84765625 C104.97719299 42.7340831 104.09501099 43.62050995 103.18609619 44.53379822 C100.84621423 46.88763056 98.51304602 49.24773754 96.18286133 51.61114502 C93.80185337 54.02288417 91.41229147 56.42611479 89.0234375 58.83007812 C84.3410322 63.54558059 79.66729272 68.26954156 75 73 C79.87724437 78.8797505 85.13886878 84.26880817 90.5546875 89.65234375 C91.45623566 90.55247696 92.35778381 91.45261017 93.28665161 92.38002014 C95.66198217 94.75072823 98.03945405 97.11924515 100.41802979 99.48669434 C102.85344717 101.91180728 105.28596912 104.33982085 107.71875 106.76757812 C112.47652769 111.51437128 117.2371538 116.25829281 122 121 C116.64359121 127.50550144 110.72477031 133.40960469 104.76220703 139.35131836 C103.62811652 140.48512639 102.49424696 141.61915547 101.36058044 142.75338745 C98.29921828 145.81503523 95.23479399 148.87360108 92.16979074 151.93160319 C88.96091325 155.13420772 85.75488825 158.33966524 82.54855347 161.54481506 C76.4840033 167.60626351 70.41690967 173.66515943 64.34888732 179.72313172 C57.43758678 186.62323505 50.52914289 193.52619548 43.62093186 200.42939174 C29.41712026 214.62276523 15.20974333 228.81256524 1 243 C-5.50550144 237.64359121 -11.40960469 231.72477031 -17.35131836 225.76220703 C-18.48512639 224.62811652 -19.61915547 223.49424696 -20.75338745 222.36058044 C-23.81503523 219.29921828 -26.87360108 216.23479399 -29.93160319 213.16979074 C-33.13420772 209.96091325 -36.33966524 206.75488825 -39.54481506 203.54855347 C-45.60626351 197.4840033 -51.66515943 191.41690967 -57.72313172 185.34888732 C-64.62323505 178.43758678 -71.52619548 171.52914289 -78.42939174 164.62093186 C-92.62276523 150.41712026 -106.81256524 136.20974333 -121 122 C-115.64359121 115.49449856 -109.72477031 109.59039531 -103.76220703 103.64868164 C-102.62811652 102.51487361 -101.49424696 101.38084453 -100.36058044 100.24661255 C-97.29921828 97.18496477 -94.23479399 94.12639892 -91.16979074 91.06839681 C-87.96091325 87.86579228 -84.75488825 84.66033476 -81.54855347 81.45518494 C-75.4840033 75.39373649 -69.41690967 69.33484057 -63.34888732 63.27686828 C-56.43758678 56.37676495 -49.52914289 49.47380452 -42.62093186 42.57060826 C-28.41712026 28.37723477 -14.20974333 14.18743476 0 0 Z " fill="#020202" transform="translate(254,138)"/>
<path d="M0 0 C1.485 0.495 1.485 0.495 3 1 C3 1.66 3 2.32 3 3 C3.80195801 3.31300049 3.80195801 3.31300049 4.62011719 3.63232422 C7.93852906 5.53935575 10.41851305 8.17310864 13.078125 10.8828125 C13.64956238 11.45707977 14.22099976 12.03134705 14.80975342 12.62301636 C16.62792945 14.4523581 18.43901492 16.28854193 20.25 18.125 C21.48391329 19.36894774 22.71828322 20.6124427 23.953125 21.85546875 C26.97406743 24.89842367 29.98867092 27.94753254 33 31 C31.70280076 33.85779017 30.3363174 35.91008536 28.11083984 38.11621094 C27.5303891 38.69651062 26.94993835 39.2768103 26.35189819 39.87469482 C25.72788116 40.48838928 25.10386414 41.10208374 24.4609375 41.734375 C23.82008209 42.37240051 23.17922668 43.01042603 22.51895142 43.66778564 C20.47562179 45.69994069 18.42544018 47.72502218 16.375 49.75 C14.9865214 51.1284453 13.5984951 52.50734636 12.2109375 53.88671875 C8.81251303 57.26311894 5.40792746 60.63319288 2 64 C-0.85779017 62.70280076 -2.91008536 61.3363174 -5.11621094 59.11083984 C-5.69651062 58.5303891 -6.2768103 57.94993835 -6.87469482 57.35189819 C-7.48838928 56.72788116 -8.10208374 56.10386414 -8.734375 55.4609375 C-9.37240051 54.82008209 -10.01042603 54.17922668 -10.66778564 53.51895142 C-12.69994069 51.47562179 -14.72502218 49.42544018 -16.75 47.375 C-18.1284453 45.9865214 -19.50734636 44.5984951 -20.88671875 43.2109375 C-24.26311894 39.81251303 -27.63319288 36.40792746 -31 33 C-29.70280076 30.14220983 -28.3363174 28.08991464 -26.11083984 25.88378906 C-25.5303891 25.30348938 -24.94993835 24.7231897 -24.35189819 24.12530518 C-23.72788116 23.51161072 -23.10386414 22.89791626 -22.4609375 22.265625 C-21.82008209 21.62759949 -21.17922668 20.98957397 -20.51895142 20.33221436 C-18.47562179 18.30005931 -16.42544018 16.27497782 -14.375 14.25 C-12.9865214 12.8715547 -11.5984951 11.49265364 -10.2109375 10.11328125 C-6.81251303 6.73688106 -3.40792746 3.36680712 0 0 Z " fill="#FAFAFA" transform="translate(312,227)"/>
<path d="M0 0 C4.23744294 3.76442606 6.63544451 8.21786598 7.37109375 13.83203125 C7.52791487 20.87053198 6.86560735 25.7129621 2 31 C-3.63550424 35.55636513 -9.41674013 37.55327811 -16.625 37.3828125 C-22.13679816 36.49439766 -26.53926031 33.4991802 -30.375 29.5625 C-30.91125 28.716875 -31.4475 27.87125 -32 27 C-32.5775 26.113125 -33.155 25.22625 -33.75 24.3125 C-35.84164543 18.76963961 -36.14140432 13.88068708 -33.93359375 8.30859375 C-30.75069779 2.48918451 -27.11649665 -1.33796198 -21 -4 C-12.89121067 -6.36764269 -6.92335244 -4.48257734 0 0 Z " fill="#0C0C0C" transform="translate(178,418)"/>
<path d="M0 0 C3.34125 -0.061875 6.6825 -0.12375 10.125 -0.1875 C11.68758545 -0.22846802 11.68758545 -0.22846802 13.28173828 -0.27026367 C20.37004554 -0.33366169 24.61397685 0.71771699 29.875 5.75 C32.41706045 9.63785715 32.65175091 11.43774363 32 16 C30.41142711 20.13028952 28.86537351 22.75558957 25 25 C24.34 25 23.68 25 23 25 C25.86402905 30.0916072 28.87289907 35.06584484 32 40 C27.13957664 41.060456 27.13957664 41.060456 24 40 C21.91584265 37.56186099 20.14508485 35.03784361 18.37744141 32.36523438 C16.65953752 29.87759607 15.46439744 28.20167676 12.65234375 26.98046875 C10.23631113 26.66362744 10.23631113 26.66362744 7 27 C7 31.29 7 35.58 7 40 C4.69 40 2.38 40 0 40 C0 26.8 0 13.6 0 0 Z " fill="#101010" transform="translate(193,414)"/>
<path d="M0 0 C7 0 7 0 8.75 1.73046875 C9.36875 2.94669922 9.36875 2.94669922 10 4.1875 C10.71542969 5.53521484 10.71542969 5.53521484 11.4453125 6.91015625 C11.95835937 7.92980469 12.47140625 8.94945312 13 10 C13.63888705 11.18854221 14.28228365 12.37466913 14.9296875 13.55859375 C16.6428862 16.69362792 18.32749637 19.8430257 20 23 C23.6978915 18.76900287 26.14630294 14.21517251 28.6875 9.25 C29.48153579 7.71274672 30.27703108 6.17624614 31.07421875 4.640625 C31.42057373 3.96547852 31.76692871 3.29033203 32.1237793 2.59472656 C33 1 33 1 34 0 C36.31 0 38.62 0 41 0 C41 13.2 41 26.4 41 40 C38.69 40 36.38 40 34 40 C33.505 27.625 33.505 27.625 33 15 C29.37 21.93 25.74 28.86 22 36 C21.01 36 20.02 36 19 36 C15.37 29.07 11.74 22.14 8 15 C7.67 23.25 7.34 31.5 7 40 C4.69 40 2.38 40 0 40 C0 26.8 0 13.6 0 0 Z " fill="#060606" transform="translate(270,414)"/>
<path d="M0 0 C2.64 0 5.28 0 8 0 C10.00678401 3.62128443 12.0042648 7.24761643 14 10.875 C14.57234375 11.90753906 15.1446875 12.94007813 15.734375 14.00390625 C16.27578125 14.99003906 16.8171875 15.97617187 17.375 16.9921875 C18.12910156 18.35899658 18.12910156 18.35899658 18.8984375 19.75341797 C20 22 20 22 20 24 C20.66 24 21.32 24 22 24 C22.22429687 23.20335937 22.44859375 22.40671875 22.6796875 21.5859375 C24.37583647 16.97923704 26.70070092 12.88280259 29.125 8.625 C29.82689453 7.37783203 29.82689453 7.37783203 30.54296875 6.10546875 C31.69070549 4.06765046 32.84313282 2.03264431 34 0 C36.31 0 38.62 0 41 0 C41 13.2 41 26.4 41 40 C39.02 40 37.04 40 35 40 C35 31.42 35 22.84 35 14 C34.34 14 33.68 14 33 14 C32.7628125 14.81855469 32.525625 15.63710938 32.28125 16.48046875 C30.74662367 20.69601241 28.71538364 24.42319229 26.5 28.3125 C25.89478516 29.40401367 25.89478516 29.40401367 25.27734375 30.51757812 C22.25226258 35.87386871 22.25226258 35.87386871 20 37 C18.15637057 33.73486809 16.32690521 30.46201438 14.5 27.1875 C13.97535156 26.25873047 13.45070313 25.32996094 12.91015625 24.37304688 C12.41386719 23.48037109 11.91757812 22.58769531 11.40625 21.66796875 C10.94541016 20.84578857 10.48457031 20.0236084 10.00976562 19.17651367 C9 17 9 17 9 14 C8.34 14 7.68 14 7 14 C7 22.58 7 31.16 7 40 C4.69 40 2.38 40 0 40 C0 26.8 0 13.6 0 0 Z " fill="#090909" transform="translate(473,414)"/>
<path d="M0 0 C3.3 -0.0825 6.6 -0.165 10 -0.25 C11.02351563 -0.28641602 12.04703125 -0.32283203 13.1015625 -0.36035156 C19.28002322 -0.43447396 23.89742663 0.38336235 29 4 C31.21471096 6.184012 31.87686968 7.327775 32.43359375 10.3671875 C32.44243785 16.04509981 32.03071006 19.64247561 28 24 C23.67742581 26.33609708 19.4771059 26.23628664 14.6875 26.125 C13.94693359 26.11597656 13.20636719 26.10695313 12.44335938 26.09765625 C10.62876533 26.07424213 8.81433929 26.03837615 7 26 C7 30.62 7 35.24 7 40 C4.69 40 2.38 40 0 40 C0 26.8 0 13.6 0 0 Z " fill="#070707" transform="translate(353,414)"/>
<path d="M0 0 C9.9 0 19.8 0 30 0 C30 1.98 30 3.96 30 6 C22.41 6 14.82 6 7 6 C7 9.63 7 13.26 7 17 C13.93 17 20.86 17 28 17 C28 18.98 28 20.96 28 23 C21.07 23 14.14 23 7 23 C7 26.63 7 30.26 7 34 C14.59 34 22.18 34 30 34 C30 35.98 30 37.96 30 40 C20.1 40 10.2 40 0 40 C0 26.8 0 13.6 0 0 Z " fill="#080808" transform="translate(232,414)"/>
<path d="M0 0 C2.31 0 4.62 0 7 0 C7.0093457 0.82201904 7.01869141 1.64403809 7.02832031 2.4909668 C7.08207871 6.22374962 7.16571831 9.95528681 7.25 13.6875 C7.26417969 14.98107422 7.27835937 16.27464844 7.29296875 17.60742188 C7.32519531 18.85458984 7.35742188 20.10175781 7.390625 21.38671875 C7.4220459 23.10701294 7.4220459 23.10701294 7.45410156 24.86206055 C8.10774147 28.61932071 9.33269095 30.31790679 12 33 C15.39002031 33.8746687 18.56832351 33.63380381 22 33 C24.57637471 31.11484777 25.59667428 29.80665143 27 27 C27.15411106 24.9692523 27.24982453 22.93393579 27.31640625 20.8984375 C27.35830078 19.68671875 27.40019531 18.475 27.44335938 17.2265625 C27.48267578 15.95554687 27.52199219 14.68453125 27.5625 13.375 C27.60568359 12.09625 27.64886719 10.8175 27.69335938 9.5 C27.79969886 6.33344652 27.90172833 3.16681247 28 0 C30.31 0 32.62 0 35 0 C35.08777806 4.16653186 35.14065272 8.33282276 35.1875 12.5 C35.21263672 13.67304688 35.23777344 14.84609375 35.26367188 16.0546875 C35.33214324 24.1799567 34.9089112 30.28305791 29.75 36.875 C24.67724167 40.79485871 19.29063385 41.56166374 13 41 C6.2895308 38.83900145 3.78668961 35.68003442 0 30 C-0.22705078 26.90551758 -0.22705078 26.90551758 -0.1953125 23.14453125 C-0.1924826 22.48289474 -0.18965271 21.82125824 -0.18673706 21.13957214 C-0.17555918 19.03036263 -0.15045981 16.92158075 -0.125 14.8125 C-0.11496707 13.38086552 -0.10584176 11.94922436 -0.09765625 10.51757812 C-0.07562795 7.01158023 -0.04111485 3.50583187 0 0 Z " fill="#131313" transform="translate(429,414)"/>
<path d="M0 0 C4.38299083 2.19149542 7.20074724 4.40190962 9 9 C9.68829606 14.0729969 9.59408188 17.83305346 7.25 22.4375 C4.53229926 25.53265917 2.57298771 27.68925664 -1.55078125 28.50390625 C-6.54394334 28.60984321 -10.08535658 28.55437321 -14.0625 25.3125 C-17.21612467 22.0605609 -18.92915075 19.5411263 -19.05859375 14.8984375 C-18.75308975 9.00516676 -17.25567259 6.05773433 -13 2 C-8.76273675 -0.54235795 -4.8271975 -0.67882465 0 0 Z " fill="#F8F8F8" transform="translate(169,420)"/>
<path d="M0 0 C3.0800885 1.02521035 5.2446611 2.2365831 8 4 C6.84826645 6.46800047 5.95216435 8.04783565 4 10 C3.49210937 9.71125 2.98421875 9.4225 2.4609375 9.125 C-1.82746456 6.81215394 -5.00080401 5.30243777 -10 6 C-10.99 6.66 -11.98 7.32 -13 8 C-13.25030977 10.58380177 -13.25030977 10.58380177 -13 13 C-8.5785496 15.44343311 -4.20709634 16.91953886 0.6328125 18.25390625 C4.73414818 19.54657146 6.56092404 20.34138606 9 24 C9.67581494 27.73476676 9.80786958 31.41764389 8.0546875 34.8515625 C5.48286227 38.13508779 3.04299761 40.10155609 -1 41 C-7.47128267 41.61577949 -13.23475439 41.17487028 -19 38 C-21.5 35.8125 -21.5 35.8125 -23 34 C-22.01 32.68 -21.02 31.36 -20 30 C-17.37685298 30.50445135 -15.60394745 31.22502986 -13.25 32.5625 C-9.06948519 34.41157386 -6.54399075 34.37245826 -2 34 C-1.01 33.34 -0.02 32.68 1 32 C1.25030977 29.41619823 1.25030977 29.41619823 1 27 C-2.82445246 24.82936482 -6.26329357 23.66353605 -10.5625 22.6875 C-14.08596995 21.75622865 -16.65450446 20.99023814 -19.1875 18.3125 C-21.58786877 13.92561914 -21.70712954 11.94990676 -21 7 C-15.77730954 -1.28426762 -9.02343048 -0.85558437 0 0 Z " fill="#0A0A0A" transform="translate(412,414)"/>
<path d="M0 0 C2.31 0 4.62 0 7 0 C7 11.22 7 22.44 7 34 C13.6 34 20.2 34 27 34 C27 35.98 27 37.96 27 40 C18.09 40 9.18 40 0 40 C0 26.8 0 13.6 0 0 Z " fill="#101010" transform="translate(111,414)"/>
<path d="M0 0 C3.55460397 1.18486799 4.75619276 2.97015218 7.0911293 5.79055977 C11.15068235 10.48932739 15.65736502 14.78654299 20.05419922 19.16772461 C21.16858555 20.28182845 22.28275091 21.39615337 23.39671326 22.51068115 C26.40435822 25.51861168 29.41506472 28.52346052 32.42635107 31.52774501 C35.57917453 34.67429468 38.72914472 37.82369814 41.87942505 40.97279358 C47.83772724 46.92799428 53.79857276 52.88064242 59.76034749 58.83236653 C66.5507317 65.61155279 73.33825862 72.39359681 80.12555289 79.1758765 C94.08053603 93.12042204 108.03908444 107.06139401 122 121 C121.34 121.66 120.68 122.32 120 123 C80.07 83.07 40.14 43.14 -1 2 C-0.67 1.34 -0.34 0.68 0 0 Z " fill="#141414" transform="translate(134,258)"/>
<path d="M0 0 C1.32 0.99 2.64 1.98 4 3 C3.67 3.99 3.34 4.98 3 6 C2.01 5.34 1.02 4.68 0 4 C-38.28 42.28 -76.56 80.56 -116 120 C-116.33 119.01 -116.66 118.02 -117 117 C-78.39 78.39 -39.78 39.78 0 0 Z " fill="#0A0A0A" transform="translate(371,138)"/>
<path d="M0 0 C3.65544568 1.5397666 5.98265286 3.73594764 8.77093506 6.53042603 C9.23579417 6.99357629 9.70065329 7.45672656 10.17959905 7.93391168 C11.73357279 9.48459534 13.28029752 11.04231113 14.82714844 12.60009766 C15.94059514 13.71410858 17.05448258 14.82767915 18.16877747 15.94084167 C21.19153403 18.96302414 24.20808206 21.99133586 27.22356319 25.02077532 C30.37636236 28.18607221 33.53482159 31.34571082 36.69268799 34.50595093 C42.67124494 40.49072545 48.64468511 46.48058023 54.6163094 52.47227132 C61.41522889 59.29354114 68.21982445 66.10913663 75.02490568 72.92425847 C89.02293437 86.94319545 103.01381006 100.96925255 117 115 C114.525 117.97 114.525 117.97 112 121 C111.34 120.34 110.68 119.68 110 119 C110.515625 118.401875 111.03125 117.80375 111.5625 117.1875 C112.036875 116.465625 112.51125 115.74375 113 115 C112.35372628 111.91663659 112.35372628 111.91663659 110.14732075 111.00686836 C109.4387049 110.6746018 108.73008905 110.34233524 108 110 C106.32482433 108.5737133 106.32482433 108.5737133 104.64286804 106.8901062 C103.99959564 106.25102829 103.35632324 105.61195038 102.69355774 104.95350647 C101.65161507 103.90313454 101.65161507 103.90313454 100.58862305 102.83154297 C99.84825806 102.09307632 99.10789307 101.35460968 98.34509277 100.59376526 C95.89571995 98.14810041 93.45363005 95.69530073 91.01171875 93.2421875 C89.30821098 91.53748723 87.60433296 89.83315689 85.90010071 88.12918091 C82.32523252 84.55274751 78.7537513 80.97297716 75.18481445 77.390625 C70.62376983 72.81264856 66.05622899 68.24122363 61.48633099 63.67208672 C57.96432127 60.14980408 54.44493186 56.62491307 50.92640114 53.09915543 C49.24418231 51.41376678 47.56136805 49.72897223 45.87793541 48.04479599 C43.51595854 45.68063429 41.15731348 43.31319752 38.79956055 40.94482422 C38.11100479 40.25672165 37.42244904 39.56861908 36.71302795 38.85966492 C32.85021644 34.97157487 29.17571981 30.98519465 25.63546467 26.80027962 C23.91338411 24.90465534 22.08512031 23.27077316 20.125 21.625 C16.06656134 18.19699841 12.63886671 14.35224929 9.17578125 10.33203125 C6.94845013 7.94474816 4.55050908 6.0292057 2 4 C0.6875 1.75 0.6875 1.75 0 0 Z " fill="#0F0F0F" transform="translate(376,144)"/>
<path d="M0 0 C2.125 -0.4375 2.125 -0.4375 5 0 C9.64827862 4.02320448 12.56693748 8.69504916 13.37109375 14.83203125 C13.52928582 21.93206374 12.81540934 26.63242372 8 32 C5.4375 34.625 5.4375 34.625 2 36 C-3.48325621 35.73819997 -8.39560137 35.06959908 -13 32 C-11.86111328 32.05220703 -11.86111328 32.05220703 -10.69921875 32.10546875 C-9.70535156 32.13253906 -8.71148437 32.15960938 -7.6875 32.1875 C-6.70136719 32.22230469 -5.71523437 32.25710938 -4.69921875 32.29296875 C-1.99974075 32.23668731 -1.99974075 32.23668731 -0.28125 30.6796875 C4.53411542 24.36686089 5.89787669 19.92007649 5 12 C4.36632896 9.02165879 4.36632896 9.02165879 3 7 C2.01 6.67 1.02 6.34 0 6 C0 5.34 0 4.68 0 4 C-0.66 3.34 -1.32 2.68 -2 2 C-1.34 2 -0.68 2 0 2 C0 1.34 0 0.68 0 0 Z " fill="#0A0A0A" transform="translate(172,417)"/>
<path d="M0 0 C2.31 0 4.62 0 7 0 C7 13.2 7 26.4 7 40 C5.02 40 3.04 40 1 40 C1 31.42 1 22.84 1 14 C0.34 14 -0.32 14 -1 14 C-1.33 14.99 -1.66 15.98 -2 17 C-5 13.25 -5 13.25 -5 11 C-4.319375 10.38125 -4.319375 10.38125 -3.625 9.75 C-1.11306029 7.04483416 0 3.68840852 0 0 Z " fill="#080808" transform="translate(507,414)"/>
<path d="M0 0 C2.31 0 4.62 0 7 0 C7.08777806 4.16653186 7.14065272 8.33282276 7.1875 12.5 C7.21263672 13.67304688 7.23777344 14.84609375 7.26367188 16.0546875 C7.33256871 24.23044506 6.89686012 30.32020471 1.6875 36.9375 C-1.31017698 39.2380428 -3.26962089 39.73974099 -7 40 C-6.50659631 33.58575198 -6.50659631 33.58575198 -4 30.6875 C-3.34 30.130625 -2.68 29.57375 -2 29 C-0.63160637 26.26321275 -0.78365182 23.95735576 -0.68359375 20.8984375 C-0.64169922 19.68671875 -0.59980469 18.475 -0.55664062 17.2265625 C-0.51732422 15.95554687 -0.47800781 14.68453125 -0.4375 13.375 C-0.39431641 12.09625 -0.35113281 10.8175 -0.30664062 9.5 C-0.20030114 6.33344652 -0.09827167 3.16681247 0 0 Z " fill="#060606" transform="translate(457,414)"/>
<path d="M0 0 C2.31 0 4.62 0 7 0 C7 13.2 7 26.4 7 40 C4.69 40 2.38 40 0 40 C0 26.8 0 13.6 0 0 Z " fill="#111111" transform="translate(337,414)"/>
<path d="M0 0 C5.34695977 4.464212 10.31846816 9.1808263 15.23022461 14.11669922 C16.02128601 14.90761459 16.81234741 15.69852997 17.62738037 16.51341248 C20.22141442 19.10813889 22.81189602 21.7063811 25.40234375 24.3046875 C27.20816034 26.11237067 29.01419896 27.91983206 30.82044983 29.7270813 C35.07552727 33.98557671 39.32837186 38.24628943 43.58012348 42.50810444 C48.42463409 47.36382988 53.27201732 52.21668335 58.1196326 57.069309 C68.08293322 67.04303501 78.0426579 77.0203255 88 87 C87.34 87.66 86.68 88.32 86 89 C57.29 60.29 28.58 31.58 -1 2 C-0.67 1.34 -0.34 0.68 0 0 Z " fill="#2D2D2D" transform="translate(166,262)"/>
<path d="M0 0 C3.20650884 1.45563142 5.3900291 3.83999647 7.80688477 6.33105469 C8.5974527 7.12798988 8.5974527 7.12798988 9.4039917 7.94102478 C11.08193164 9.63572669 12.74912705 11.3405706 14.41625977 13.04589844 C15.55358721 14.19827589 16.69160043 15.34997696 17.83032227 16.50097656 C20.61697968 19.32067028 23.39404768 22.14950432 26.16625977 24.98339844 C25.50625977 25.64339844 24.84625977 26.30339844 24.16625977 26.98339844 C23.47999512 26.28666016 22.79373047 25.58992188 22.08666992 24.87207031 C19.54598849 22.29526492 16.99875598 19.72502194 14.44946289 17.15673828 C13.34576678 16.04296721 12.24387004 14.92741012 11.14379883 13.81005859 C9.56480902 12.20688606 7.97951863 10.61018933 6.39282227 9.01464844 C5.90004791 8.51155151 5.40727356 8.00845459 4.89956665 7.4901123 C3.69250376 6.2826533 2.43347381 5.12756915 1.16625977 3.98339844 C-1.12211874 3.75433182 -1.12211874 3.75433182 -3.14624023 6.17089844 C-4.03311523 7.09902344 -4.91999023 8.02714844 -5.83374023 8.98339844 C-7.5004069 10.6500651 -9.16707357 12.31673177 -10.83374023 13.98339844 C-8.90260347 18.72346139 -5.39246476 21.78437957 -1.39624023 24.85839844 C1.32600196 27.11586757 3.43682271 29.54594708 5.69360352 32.25292969 C7.72048971 34.63465538 9.92726106 36.80180995 12.16625977 38.98339844 C13.83434911 40.64864121 15.50079343 42.3155323 17.16625977 43.98339844 C18.1310214 44.94832429 19.0958666 45.91316661 20.06079102 46.87792969 C22.76261393 49.5797526 25.46443685 52.28157552 28.16625977 54.98339844 C27.50625977 55.64339844 26.84625977 56.30339844 26.16625977 56.98339844 C20.78862865 51.72150956 15.42445305 46.44623026 10.07723904 41.15343857 C7.59398048 38.69629749 5.10627711 36.24403125 2.60791016 33.80224609 C-0.26275565 30.99619299 -3.11306488 28.17023646 -5.96264648 25.34277344 C-6.86463272 24.46659363 -7.76661896 23.59041382 -8.69593811 22.68768311 C-9.51686447 21.8671344 -10.33779083 21.04658569 -11.18359375 20.20117188 C-11.91417496 19.48169373 -12.64475616 18.76221558 -13.3974762 18.02093506 C-14.83374023 15.98339844 -14.83374023 15.98339844 -14.72325134 13.91046143 C-13.19375727 10.59692054 -10.57404105 8.21164353 -8.02124023 5.67089844 C-7.21976562 4.82688477 -7.21976562 4.82688477 -6.40209961 3.96582031 C-2.43376981 -0.02203386 -2.43376981 -0.02203386 0 0 Z " fill="#1E1E1E" transform="translate(344.833740234375,324.0166015625)"/>
<path d="M0 0 C12.24185013 -0.40357748 12.24185013 -0.40357748 17 3 C18 4 18 4 18.3125 6.8125 C18 10 18 10 16.43359375 12.18359375 C11.72799595 15.69579757 5.62137189 14.20819896 0 14 C0 9.38 0 4.76 0 0 Z " fill="#F1F1F1" transform="translate(360,420)"/>
<path d="M0 0 C5.30566534 4.43023638 10.23820855 9.10560665 15.10668945 14.0090332 C15.8847847 14.78858871 16.66287994 15.56814423 17.46455383 16.37132263 C19.14237314 18.05292864 20.81903684 19.73568829 22.4946537 21.41948891 C25.14397206 24.08162049 27.79644552 26.74057189 30.44975281 29.39872742 C36.07348079 35.03385079 41.69328217 40.6728803 47.3125 46.3125 C53.84191307 52.86556672 60.37299793 59.41695289 66.90825462 65.96419334 C69.52610947 68.58854821 72.14094491 71.21588679 74.75569153 73.84333801 C76.35040842 75.44168517 77.94526461 77.03989337 79.5402832 78.63793945 C80.63509003 79.74049576 80.63509003 79.74049576 81.75201416 80.86532593 C82.75066246 81.86407997 82.75066246 81.86407997 83.76948547 82.88301086 C84.34849767 83.46424367 84.92750986 84.04547647 85.52406788 84.6443224 C86.97572028 86.10273098 86.97572028 86.10273098 89 87 C87.70527917 92.25687856 85.24114614 95.26398026 81.375 98.875 C80.859375 99.37257813 80.34375 99.87015625 79.8125 100.3828125 C78.55064368 101.5979334 77.27653714 102.80031125 76 104 C74.515 103.505 74.515 103.505 73 103 C77.29 98.71 81.58 94.42 86 90 C84.27940064 86.55880127 83.19114839 84.9452525 80.57052612 82.34347534 C79.86098785 81.63407806 79.15144958 80.92468079 78.42041016 80.19378662 C77.64213867 79.42584778 76.86386719 78.65790894 76.06201172 77.86669922 C75.24241974 77.05002777 74.42282776 76.23335632 73.57839966 75.39193726 C71.79850448 73.61965291 70.01630255 71.84968292 68.23208237 70.08175278 C65.41281353 67.28796605 62.59963136 64.48813754 59.7883606 61.68630981 C53.82313495 55.74326956 47.84948948 49.80872512 41.875 43.875 C35.41827798 37.46229566 28.9630106 31.04816726 22.51742756 24.62426388 C19.26913479 21.38756803 16.01313336 18.1587445 12.75582886 14.93112183 C11.06332581 13.2458795 9.3711005 11.56035819 7.67919922 9.87451172 C6.89687927 9.10252441 6.11455933 8.33053711 5.30853271 7.53515625 C4.60463409 6.83139862 3.90073547 6.12764099 3.17550659 5.40255737 C2.55865934 4.79015135 1.9418121 4.17774532 1.30627251 3.54678154 C0 2 0 2 0 0 Z " fill="#121212" transform="translate(375,170)"/>
<path d="M0 0 C2.24893954 -0.10823773 4.49937575 -0.18569645 6.75 -0.25 C8.00296875 -0.29640625 9.2559375 -0.3428125 10.546875 -0.390625 C14 0 14 0 16.421875 1.859375 C18 4 18 4 18.5 6.5 C17.82351183 9.88244087 16.72818168 10.90546052 14 13 C10.546875 13.390625 10.546875 13.390625 6.75 13.25 C5.48671875 13.21390625 4.2234375 13.1778125 2.921875 13.140625 C1.47554687 13.07101562 1.47554687 13.07101562 0 13 C0 8.71 0 4.42 0 0 Z " fill="#F8F8F8" transform="translate(200,421)"/>
<path d="M0 0 C2.64 0 5.28 0 8 0 C8.33 0.99 8.66 1.98 9 3 C8.01 3.495 8.01 3.495 7 4 C7 3.34 7 2.68 7 2 C5.68 2 4.36 2 3 2 C3 13.88 3 25.76 3 38 C3.66 38 4.32 38 5 38 C5 30.08 5 22.16 5 14 C7 16 7 16 7.22705078 18.43017578 C7.21657715 19.4251709 7.20610352 20.42016602 7.1953125 21.4453125 C7.18564453 23.05986328 7.18564453 23.05986328 7.17578125 24.70703125 C7.15902344 25.83496094 7.14226562 26.96289062 7.125 28.125 C7.11597656 29.26066406 7.10695313 30.39632813 7.09765625 31.56640625 C7.07403098 34.37781299 7.04109013 37.18880298 7 40 C4.69 40 2.38 40 0 40 C0 26.8 0 13.6 0 0 Z " fill="#1D1D1D" transform="translate(473,414)"/>
<path d="M0 0 C2.4375 1.5625 2.4375 1.5625 4 4 C4 7.81153499 3.80074051 10.05097421 1.3125 13 C-1.89970645 14.38906225 -3.6936636 14.05521374 -7 13 C-9.27605184 10.87568495 -9.90218604 9.55893694 -10.4375 6.5 C-9.41545969 0.65976965 -5.50319355 -0.91719892 0 0 Z " fill="#F0F0F0" transform="translate(337,469)"/>
<path d="M0 0 C-0.185625 0.639375 -0.37125 1.27875 -0.5625 1.9375 C-0.706875 2.618125 -0.85125 3.29875 -1 4 C-0.67 4.33 -0.34 4.66 0 5 C0.04092937 7.33297433 0.04241723 9.66705225 0 12 C-2.8630693 12.63084578 -5.11120671 13.12281376 -8 13 C-11.20954236 10.72657416 -12.71265534 9.30901458 -13.5625 5.4375 C-11.78285109 -2.27431194 -6.37639084 -1.25347854 0 0 Z " fill="#999999" transform="translate(315,470)"/>
<path d="M0 0 C2.61353187 0.50260228 4.35559746 1.20674271 6.6875 2.5625 C10.48007702 4.20833531 12.99888091 4.1429485 17.046875 3.8125 C17.69140625 3.874375 18.3359375 3.93625 19 4 C19.99 5.485 19.99 5.485 21 7 C23.05925139 7.72382467 23.05925139 7.72382467 25 8 C19.67796934 11.36128252 15.10529037 11.69720908 9 11 C3.95391161 9.8076024 0.36745947 8.06901353 -3 4 C-2.01 2.68 -1.02 1.36 0 0 Z " fill="#020202" transform="translate(392,444)"/>
<path d="M0 0 C5.79835896 4.81437438 11.12281785 9.99248432 16.43359375 15.3359375 C17.31153091 16.21528961 18.18946808 17.09464172 19.0940094 18.00064087 C21.87754412 20.78974058 24.65756769 23.58231018 27.4375 26.375 C29.33216665 28.2752542 31.2275963 30.17474653 33.12304688 32.07421875 C37.75135161 36.71350604 42.37678421 41.35564167 47 46 C45.68 47.32 44.36 48.64 43 50 C43 49.01 43 48.02 43 47 C38.4932696 41.23669772 33.28538771 36.15429732 28.1015625 31.00390625 C27.26660248 30.17036118 26.43164246 29.3368161 25.57138062 28.47801208 C22.92494152 25.83713476 20.27503241 23.19977104 17.625 20.5625 C15.82138357 18.76390351 14.01799575 16.96507773 12.21484375 15.16601562 C7.81253739 10.77468752 3.40738286 6.38623271 -1 2 C-0.67 1.34 -0.34 0.68 0 0 Z " fill="#0B0B0B" transform="translate(329,213)"/>
<path d="M0 0 C0.66 0.66 1.32 1.32 2 2 C1.34 2 0.68 2 0 2 C0 1.34 0 0.68 0 0 Z M4 1 C4.89753304 3.46152694 5.14514362 4.61993956 4.19555664 7.10644531 C3.77137451 7.83959961 3.34719238 8.57275391 2.91015625 9.328125 C2.45576172 10.12734375 2.00136719 10.9265625 1.53320312 11.75 C1.04787109 12.575 0.56253906 13.4 0.0625 14.25 C-0.41896484 15.09046875 -0.90042969 15.9309375 -1.39648438 16.796875 C-2.58683965 18.87115747 -3.78819948 20.93819665 -5 23 C-7.2751756 20.79357971 -8.90218833 19.01898208 -10 16 C-9.625 13.75 -9.625 13.75 -9 12 C-8.01 12 -7.02 12 -6 12 C-5.7525 11.278125 -5.505 10.55625 -5.25 9.8125 C-3.89016326 6.75286734 -2.17082246 4.5326262 0 2 C0.33 2.66 0.66 3.32 1 4 C0.67 4.66 0.34 5.32 0 6 C1.70840281 4.36587557 2.93453047 3.13093906 4 1 Z " fill="#0F0F0F" transform="translate(296,428)"/>
<path d="M0 0 C4.88688616 3.25792411 8.32328829 6.35573257 12 11 C14.53610192 13.66615843 17.07465879 16.06036243 19.9375 18.375 C22.84592521 20.74648517 25.17181308 23.4260728 27.5625 26.30859375 C28.82297351 27.79170524 30.18619822 29.18619822 31.5625 30.5625 C34.24634864 33.24634864 36.6050892 36.05768102 39 39 C36 39 36 39 34.23457336 37.59533691 C33.58393417 36.93803589 32.93329498 36.28073486 32.26293945 35.60351562 C31.52239822 34.8627478 30.78185699 34.12197998 30.01887512 33.35876465 C29.22502914 32.54943481 28.43118317 31.74010498 27.61328125 30.90625 C26.79627243 30.08499634 25.97926361 29.26374268 25.13749695 28.41760254 C22.52206391 25.78533728 19.91723587 23.14284694 17.3125 20.5 C15.54430706 18.71676618 13.7754354 16.93420508 12.00585938 15.15234375 C7.66265853 10.77601329 3.32812679 6.39123626 -1 2 C-0.67 1.34 -0.34 0.68 0 0 Z " fill="#1D1D1D" transform="translate(259,266)"/>
<path d="M0 0 C4.96562741 4.16792827 9.6589933 8.4992567 14.24609375 13.078125 C14.90207047 13.73077332 15.55804718 14.38342163 16.23390198 15.05584717 C17.60572364 16.42264399 18.97622833 17.79076381 20.34545898 19.16015625 C22.45082159 21.26330759 24.56408709 23.35830373 26.67773438 25.453125 C28.01350874 26.78596953 29.34881258 28.11928583 30.68359375 29.453125 C31.31784775 30.08019348 31.95210175 30.70726196 32.60557556 31.35333252 C37 35.77114683 37 35.77114683 37 38 C34.00056095 36.65427113 31.91923821 35.16462899 29.60839844 32.83544922 C28.9680365 32.19493622 28.32767456 31.55442322 27.66790771 30.89450073 C26.98859192 30.20486237 26.30927612 29.515224 25.609375 28.8046875 C24.90476135 28.09724396 24.20014771 27.38980042 23.47418213 26.66091919 C21.2280461 24.40360138 18.98896991 22.13942367 16.75 19.875 C15.22702283 18.34199047 13.70359061 16.80943285 12.1796875 15.27734375 C8.44783185 11.52345427 4.72174649 7.76391086 1 4 C-0.65 4.66 -2.3 5.32 -4 6 C-2.84826645 3.53199953 -1.95216435 1.95216435 0 0 Z " fill="#0A0A0A" transform="translate(254,138)"/>
<path d="M0 0 C7 0 7 0 10 2 C10.1875 4.625 10.1875 4.625 10 7 C9.01 7.33 8.02 7.66 7 8 C7.7425 8.928125 7.7425 8.928125 8.5 9.875 C10 12 10 12 10 14 C9.34 14 8.68 14 8 14 C7.34 12.35 6.68 10.7 6 9 C4.68 9 3.36 9 2 9 C2 10.65 2 12.3 2 14 C1.34 14 0.68 14 0 14 C0 9.38 0 4.76 0 0 Z " fill="#2F2F2F" transform="translate(463,469)"/>
<path d="M0 0 C0.33 0.99 0.66 1.98 1 3 C-0.85326701 6.00970562 -3.56053148 8.45904959 -6 11 C-6.51062988 11.5470459 -7.02125977 12.0940918 -7.54736328 12.65771484 C-9.24588651 14.47406044 -10.96379356 16.27005828 -12.6875 18.0625 C-13.2458252 18.6591748 -13.80415039 19.25584961 -14.37939453 19.87060547 C-16.01171875 21.53515625 -16.01171875 21.53515625 -19 24 C-20.32 23.67 -21.64 23.34 -23 23 C-15.41 15.41 -7.82 7.82 0 0 Z " fill="#1A1A1A" transform="translate(409,312)"/>
<path d="M0 0 C0.33 1.32 0.66 2.64 1 4 C-0.49121094 6.07470703 -0.49121094 6.07470703 -2.734375 8.2578125 C-3.93707031 9.44310547 -3.93707031 9.44310547 -5.1640625 10.65234375 C-6.44410156 11.87630859 -6.44410156 11.87630859 -7.75 13.125 C-9.00683594 14.36056641 -9.00683594 14.36056641 -10.2890625 15.62109375 C-16.44653614 21.6310241 -16.44653614 21.6310241 -20 24 C-20.99 23.67 -21.98 23.34 -23 23 C-15.41 15.41 -7.82 7.82 0 0 Z " fill="#131313" transform="translate(439,282)"/>
<path d="M0 0 C0.66 0 1.32 0 2 0 C3.00484204 1.95585325 4.00373805 3.91476237 5 5.875 C5.556875 6.96554687 6.11375 8.05609375 6.6875 9.1796875 C8 12 8 12 8 14 C7.01 14 6.02 14 5 14 C5 13.01 5 12.02 5 11 C3.0509375 11.185625 3.0509375 11.185625 1.0625 11.375 C0.33160156 11.44460938 -0.39929688 11.51421875 -1.15234375 11.5859375 C-1.76207031 11.72257812 -2.37179688 11.85921875 -3 12 C-3.33 12.66 -3.66 13.32 -4 14 C-4.66 14 -5.32 14 -6 14 C-4.50829734 9.0276578 -2.39542583 4.58154261 0 0 Z " fill="#3E3E3E" transform="translate(157,469)"/>
<path d="M0 0 C0.66 0.66 1.32 1.32 2 2 C-7.24 11.24 -16.48 20.48 -26 30 C-26.66 29.34 -27.32 28.68 -28 28 C-18.76 18.76 -9.52 9.52 0 0 Z " fill="#1F1F1F" transform="translate(337,295)"/>
<path d="M0 0 C2.31 0 4.62 0 7 0 C7.99 1.98 8.98 3.96 10 6 C9.01 6 8.02 6 7 6 C6.7525 5.360625 6.505 4.72125 6.25 4.0625 C5.03378366 1.50980961 5.03378366 1.50980961 1 1 C1 12.88 1 24.76 1 37 C1.99 37 2.98 37 4 37 C4 29.41 4 21.82 4 14 C4.33 14 4.66 14 5 14 C5 21.92 5 29.84 5 38 C3.35 38 1.7 38 0 38 C0 25.46 0 12.92 0 0 Z " fill="#181818" transform="translate(271,415)"/>
<path d="M0 0 C4.37575353 0.44029885 6.73752108 3.35542093 9.640625 6.34765625 C10.16767029 6.87894638 10.69471558 7.41023651 11.23773193 7.95762634 C12.91567187 9.65232825 14.58286728 11.35717217 16.25 13.0625 C17.38732745 14.21487745 18.52534066 15.36657852 19.6640625 16.51757812 C22.45071992 19.33727184 25.22778792 22.16610588 28 25 C27.34 25.66 26.68 26.32 26 27 C22.29403669 23.3186774 18.59131014 19.63414174 14.89160156 15.9465332 C13.63142871 14.69140234 12.37036163 13.43716865 11.10839844 12.18383789 C9.29909566 10.3866066 7.49298864 8.58621813 5.6875 6.78515625 C5.11878174 6.22159927 4.55006348 5.6580423 3.96411133 5.07740784 C2.62362787 3.73711889 1.30889557 2.3711538 0 1 C0 0.67 0 0.34 0 0 Z " fill="#2B2B2B" transform="translate(343,324)"/>
<path d="M0 0 C3.96 0 7.92 0 12 0 C12 0.99 12 1.98 12 3 C10.68 3 9.36 3 8 3 C8 6.96 8 10.92 8 15 C7.01 15 6.02 15 5 15 C5 11.04 5 7.08 5 3 C3.35 3 1.7 3 0 3 C0 2.01 0 1.02 0 0 Z " fill="#757575" transform="translate(129,468)"/>
<path d="M0 0 C0.66 0 1.32 0 2 0 C0.94124926 3.40312738 -0.00902154 6.01353231 -2 9 C-2.66 9 -3.32 9 -4 9 C-2.94124926 5.59687262 -1.99097846 2.98646769 0 0 Z M-5 9 C-2.65941419 11.34058581 -1.80345452 12.78618192 -1 16 C-2.375 19.3125 -2.375 19.3125 -4 22 C-4.66 20.68 -5.32 19.36 -6 18 C-6.99 18.66 -7.98 19.32 -9 20 C-9.33 19.34 -9.66 18.68 -10 18 C-9.00390625 15.8359375 -9.00390625 15.8359375 -7.5625 13.375 C-7.08941406 12.55773437 -6.61632812 11.74046875 -6.12890625 10.8984375 C-5.75636719 10.27195312 -5.38382812 9.64546875 -5 9 Z " fill="#161616" transform="translate(506,416)"/>
<path d="M0 0 C1.68803956 0.72100475 3.34372853 1.51681027 4.9921875 2.32421875 C4.0021875 2.65421875 3.0121875 2.98421875 1.9921875 3.32421875 C2.3221875 4.97421875 2.6521875 6.62421875 2.9921875 8.32421875 C-0.3078125 7.66421875 -3.6078125 7.00421875 -7.0078125 6.32421875 C-7.0078125 5.33421875 -7.0078125 4.34421875 -7.0078125 3.32421875 C-8.9878125 2.66421875 -10.9678125 2.00421875 -13.0078125 1.32421875 C-8.9122362 -1.29695008 -4.60741733 -1.55074552 0 0 Z " fill="#0F0F0F" transform="translate(170.0078125,413.67578125)"/>
<path d="M0 0 C0.66 0.66 1.32 1.32 2 2 C-5.59 9.59 -13.18 17.18 -21 25 C-21.66 24.34 -22.32 23.68 -23 23 C-15.41 15.41 -7.82 7.82 0 0 Z " fill="#1F1F1F" transform="translate(366,266)"/>
<path d="M0 0 C0.66 0.33 1.32 0.66 2 1 C1.67 1.66 1.34 2.32 1 3 C-0.1446875 2.6596875 -0.1446875 2.6596875 -1.3125 2.3125 C-3.97532224 1.72590357 -3.97532224 1.72590357 -5.875 3.125 C-7.27409643 5.02467776 -7.27409643 5.02467776 -6.6875 7.6875 C-6.460625 8.450625 -6.23375 9.21375 -6 10 C-3.69 10.66 -1.38 11.32 1 12 C1 10.68 1 9.36 1 8 C-0.32 8 -1.64 8 -3 8 C-3 7.34 -3 6.68 -3 6 C-1.02 6 0.96 6 3 6 C3 8.31 3 10.62 3 13 C-4.1641791 14.31343284 -4.1641791 14.31343284 -7.5 13.0625 C-9.51221475 10.29570472 -9.50789354 8.23529307 -9.31640625 4.875 C-9 3 -9 3 -7.875 1 C-5.1715264 -0.44185259 -3.01217617 -0.25635542 0 0 Z " fill="#333333" transform="translate(186,469)"/>
<path d="M0 0 C2.4375 1.5625 2.4375 1.5625 4 4 C4 7.81153499 3.80074051 10.05097421 1.3125 13 C-1.89970645 14.38906225 -3.6936636 14.05521374 -7 13 C-9.27605184 10.87568495 -9.90218604 9.55893694 -10.4375 6.5 C-9.41545969 0.65976965 -5.50319355 -0.91719892 0 0 Z M-8 4 C-7.67 6.31 -7.34 8.62 -7 11 C-3.59679066 11.67673447 -3.59679066 11.67673447 0 12 C2.29827312 10.12061828 2.29827312 10.12061828 2.3125 7.0625 C2.25550177 4.04083662 2.25550177 4.04083662 0.6875 2.125 C-2.96439133 -0.30959422 -5.0397634 1.55014902 -8 4 Z " fill="#2B2B2B" transform="translate(337,469)"/>
<path d="M0 0 C0.66 0 1.32 0 2 0 C2 1.98 2 3.96 2 6 C4.64 6 7.28 6 10 6 C10 4.02 10 2.04 10 0 C10.66 0 11.32 0 12 0 C12 4.62 12 9.24 12 14 C11.34 14 10.68 14 10 14 C10 11.69 10 9.38 10 7 C7.36 7 4.72 7 2 7 C2 9.31 2 11.62 2 14 C1.34 14 0.68 14 0 14 C0 9.38 0 4.76 0 0 Z " fill="#333333" transform="translate(415,469)"/>
<path d="M0 0 C3.3 0 6.6 0 10 0 C10 0.66 10 1.32 10 2 C7.36 2 4.72 2 2 2 C2 3.32 2 4.64 2 6 C4.31 6 6.62 6 9 6 C9 6.33 9 6.66 9 7 C6.69 7 4.38 7 2 7 C2 8.65 2 10.3 2 12 C4.64 12 7.28 12 10 12 C10 12.33 10 12.66 10 13 C6.7 13 3.4 13 0 13 C0 8.71 0 4.42 0 0 Z " fill="#1E1E1E" transform="translate(354,469)"/>
<path d="M0 0 C3.3 0 6.6 0 10 0 C10 0.66 10 1.32 10 2 C7.36 2 4.72 2 2 2 C2 3.32 2 4.64 2 6 C4.31 6 6.62 6 9 6 C9 6.33 9 6.66 9 7 C6.69 7 4.38 7 2 7 C2 8.65 2 10.3 2 12 C4.64 12 7.28 12 10 12 C10 12.33 10 12.66 10 13 C6.7 13 3.4 13 0 13 C0 8.71 0 4.42 0 0 Z " fill="#1E1E1E" transform="translate(486,469)"/>
<path d="M0 0 C3.3 0 6.6 0 10 0 C10 0.66 10 1.32 10 2 C7.36 2 4.72 2 2 2 C2 3.32 2 4.64 2 6 C4.31 6 6.62 6 9 6 C9 6.33 9 6.66 9 7 C6.69 7 4.38 7 2 7 C2 8.65 2 10.3 2 12 C4.64 12 7.28 12 10 12 C10 12.33 10 12.66 10 13 C6.7 13 3.4 13 0 13 C0 8.71 0 4.42 0 0 Z " fill="#1C1C1C" transform="translate(264,469)"/>
<path d="M0 0 C6.43010766 5.33290675 12.21506484 11.17786154 18.03515625 17.16210938 C18.76089844 17.89880859 19.48664063 18.63550781 20.234375 19.39453125 C21.21229004 20.39770386 21.21229004 20.39770386 22.20996094 21.42114258 C24.01787036 23.22283432 24.01787036 23.22283432 27 24 C26.67 24.99 26.34 25.98 26 27 C20.04017592 22.0510009 14.54057377 16.72390794 9.0625 11.25 C8.18787109 10.38761719 7.31324219 9.52523437 6.41210938 8.63671875 C5.58646484 7.81300781 4.76082031 6.98929688 3.91015625 6.140625 C3.15871338 5.39329102 2.40727051 4.64595703 1.63305664 3.87597656 C0 2 0 2 0 0 Z " fill="#121212" transform="translate(256,168)"/>
<path d="M0 0 C2.44379972 2.2692426 4.23937994 4.36995082 6.0625 7.1875 C7.75899467 10.25402613 7.75899467 10.25402613 11 11 C11 10.34 11 9.68 11 9 C10.34 9 9.68 9 9 9 C8.67 8.01 8.34 7.02 8 6 C8.99 6 9.98 6 11 6 C12.32 8.31 13.64 10.62 15 13 C10.02897278 13.78489903 10.02897278 13.78489903 7 13 C4.0628359 10.38125743 1.84135596 7.47555938 0 4 C0 2.68 0 1.36 0 0 Z " fill="#181818" transform="translate(210,441)"/>
<path d="M0 0 C3.3 0 6.6 0 10 0 C10 0.66 10 1.32 10 2 C7.36 2 4.72 2 2 2 C2 3.32 2 4.64 2 6 C4.31 6 6.62 6 9 6 C9 6.33 9 6.66 9 7 C6.36 7 3.72 7 1 7 C1 8.65 1 10.3 1 12 C3.97 12 6.94 12 10 12 C10 12.33 10 12.66 10 13 C6.7 13 3.4 13 0 13 C0 8.71 0 4.42 0 0 Z " fill="#1D1D1D" transform="translate(440,469)"/>
<path d="M0 0 C2.33944736 0.28730055 4.6739143 0.61936779 7 1 C4 2 4 2 1 2 C1 2.99 1 3.98 1 5 C2.98 5.66 4.96 6.32 7 7 C7 8.98 7 10.96 7 13 C0.25 14.125 0.25 14.125 -2 13 C-2 12.34 -2 11.68 -2 11 C0.31 11 2.62 11 5 11 C5 10.34 5 9.68 5 9 C2.69 8.01 0.38 7.02 -2 6 C-1.125 1.125 -1.125 1.125 0 0 Z " fill="#2C2C2C" transform="translate(379,469)"/>
<path d="M0 0 C-1.65863505 4.32504836 -4.871041 7.09418825 -8.125 10.25 C-8.68832031 10.80429688 -9.25164062 11.35859375 -9.83203125 11.9296875 C-11.21686028 13.29104485 -12.60783204 14.64614859 -14 16 C-14.99 15.67 -15.98 15.34 -17 15 C-14.54976242 12.49195282 -12.08852402 9.9949924 -9.625 7.5 C-8.57699219 6.42685547 -8.57699219 6.42685547 -7.5078125 5.33203125 C-6.8375 4.65527344 -6.1671875 3.97851562 -5.4765625 3.28125 C-4.85861816 2.65283203 -4.24067383 2.02441406 -3.60400391 1.37695312 C-2 0 -2 0 0 0 Z " fill="#0A0A0A" transform="translate(152,242)"/>
<path d="M0 0 C0.66 0 1.32 0 2 0 C2 3.96 2 7.92 2 12 C4.64 12 7.28 12 10 12 C10 12.66 10 13.32 10 14 C6.7 14 3.4 14 0 14 C0 9.38 0 4.76 0 0 Z " fill="#595959" transform="translate(201,469)"/>
<path d="M0 0 C0.33 0 0.66 0 1 0 C1 8.58 1 17.16 1 26 C3.31 26 5.62 26 8 26 C8 26.33 8 26.66 8 27 C4.04 27.495 4.04 27.495 0 28 C-0.33 20.74 -0.66 13.48 -1 6 C-1.99 6.495 -1.99 6.495 -3 7 C-1.125 1.125 -1.125 1.125 0 0 Z " fill="#DBDBDB" transform="translate(303,428)"/>
<path d="M0 0 C0.99 0.33 1.98 0.66 3 1 C-1.11619836 5.91935902 -5.40410362 10.52647956 -10 15 C-10.66 14.34 -11.32 13.68 -12 13 C-11.38511719 12.39671875 -10.77023437 11.7934375 -10.13671875 11.171875 C-9.32847656 10.37265625 -8.52023437 9.5734375 -7.6875 8.75 C-6.88699219 7.96109375 -6.08648437 7.1721875 -5.26171875 6.359375 C-3.31256349 4.32605933 -1.62578594 2.29398922 0 0 Z " fill="#141414" transform="translate(407,341)"/>
<path d="M0 0 C0.66 0.66 1.32 1.32 2 2 C-2.62 6.62 -7.24 11.24 -12 16 C-12.66 15.34 -13.32 14.68 -14 14 C-9.38 9.38 -4.76 4.76 0 0 Z " fill="#1F1F1F" transform="translate(307,325)"/>
<path d="M0 0 C-1.58667578 3.90285767 -4.13350481 6.33520982 -7.125 9.25 C-8.03507812 10.14203125 -8.94515625 11.0340625 -9.8828125 11.953125 C-10.58148438 12.62859375 -11.28015625 13.3040625 -12 14 C-12.99 13.67 -13.98 13.34 -15 13 C-12.88094537 10.82722286 -10.75527122 8.66173092 -8.625 6.5 C-8.02171875 5.87996094 -7.4184375 5.25992187 -6.796875 4.62109375 C-6.21679688 4.03457031 -5.63671875 3.44804687 -5.0390625 2.84375 C-4.50490723 2.29912109 -3.97075195 1.75449219 -3.42041016 1.19335938 C-2 0 -2 0 0 0 Z " fill="#2D2D2D" transform="translate(463,260)"/>
<path d="M0 0 C2 1 2 1 3 3 C5.02463255 3.65213292 5.02463255 3.65213292 7 4 C1.62669111 7.39366878 -2.86946489 7.32712342 -9 7 C-9 6.67 -9 6.34 -9 6 C-5.535 5.505 -5.535 5.505 -2 5 C-2 4.67 -2 4.34 -2 4 C-3.65 3.67 -5.3 3.34 -7 3 C-7 2.67 -7 2.34 -7 2 C-4.69 2 -2.38 2 0 2 C0 1.34 0 0.68 0 0 Z " fill="#232323" transform="translate(410,448)"/>
<path d="M0 0 C0.66 0 1.32 0 2 0 C3.00484204 1.95585325 4.00373805 3.91476237 5 5.875 C5.556875 6.96554687 6.11375 8.05609375 6.6875 9.1796875 C8 12 8 12 8 14 C7.01 14 6.02 14 5 14 C4.49384702 12.73160474 3.99530901 11.46016898 3.5 10.1875 C3.2215625 9.47980469 2.943125 8.77210938 2.65625 8.04296875 C2 6 2 6 2 3 C1.34 3 0.68 3 0 3 C-0.66 4.65 -1.32 6.3 -2 8 C-2.33 7.34 -2.66 6.68 -3 6 C-2.06553465 3.96855359 -1.06775224 1.96466413 0 0 Z " fill="#2A2A2A" transform="translate(157,469)"/>
<path d="M0 0 C0.99 0.33 1.98 0.66 3 1 C2.01 2.485 2.01 2.485 1 4 C5.0271824 6.20536179 8.43545749 7.45660208 13 8 C13 8.33 13 8.66 13 9 C6.25158562 10.56659619 6.25158562 10.56659619 2.6875 8.953125 C0.72543379 7.70581148 -1.15700643 6.41655623 -3 5 C-2.01 3.35 -1.02 1.7 0 0 Z " fill="#222222" transform="translate(392,444)"/>
<path d="M0 0 C1.95803507 -0.05389087 3.91648909 -0.09274217 5.875 -0.125 C7.51082031 -0.15980469 7.51082031 -0.15980469 9.1796875 -0.1953125 C12 0 12 0 14 2 C14 2.99 14 3.98 14 5 C10.37 5 6.74 5 3 5 C3 4.01 3 3.02 3 2 C2.01 1.34 1.02 0.68 0 0 Z " fill="#010101" transform="translate(400,414)"/>
<path d="M0 0 C-1.59092052 4.13639336 -4.60474918 7.23213248 -8 10 C-8.66 10 -9.32 10 -10 10 C-10.66 11.32 -11.32 12.64 -12 14 C-12.66 14 -13.32 14 -14 14 C-12.41438362 10.14406926 -9.93490046 7.66783709 -7 4.75 C-6.113125 3.85796875 -5.22625 2.9659375 -4.3125 2.046875 C-2 0 -2 0 0 0 Z " fill="#0C0C0C" transform="translate(192,202)"/>
<path d="M0 0 C0.33 0 0.66 0 1 0 C1.11608127 4.41644598 1.1872132 8.83250017 1.25 13.25 C1.30027344 15.13138672 1.30027344 15.13138672 1.3515625 17.05078125 C1.36445313 18.25605469 1.37734375 19.46132813 1.390625 20.703125 C1.4220459 22.36843262 1.4220459 22.36843262 1.45410156 24.06738281 C0.90319184 27.62519334 -0.2539063 28.76701723 -3 31 C-2.67 29.35 -2.34 27.7 -2 26 C-1.34 26 -0.68 26 0 26 C0 17.42 0 8.84 0 0 Z " fill="#191919" transform="translate(458,415)"/>
<path d="M0 0 C0.66 0.33 1.32 0.66 2 1 C0.23598822 2.98563635 -1.53561883 4.96343656 -3.3125 6.9375 C-3.81201172 7.50146484 -4.31152344 8.06542969 -4.82617188 8.64648438 C-8.66015625 12.88671875 -8.66015625 12.88671875 -12 14 C-10.41332422 10.09714233 -7.86649519 7.66479018 -4.875 4.75 C-3.96492187 3.85796875 -3.05484375 2.9659375 -2.1171875 2.046875 C-1.41851562 1.37140625 -0.71984375 0.6959375 0 0 Z " fill="#0A0A0A" transform="translate(230,162)"/>
<path d="M0 0 C0 0.66 0 1.32 0 2 C-2.88211302 2.96070434 -4.69850044 3.10581883 -7.6875 3.0625 C-8.89986328 3.04896484 -8.89986328 3.04896484 -10.13671875 3.03515625 C-11.05904297 3.01775391 -11.05904297 3.01775391 -12 3 C-12.33 2.01 -12.66 1.02 -13 0 C-8.38926889 -1.29676812 -4.66159911 -0.71109139 0 0 Z " fill="#171717" transform="translate(171,452)"/>
<path d="M0 0 C2.125 -0.4375 2.125 -0.4375 5 0 C8.37927995 2.80155762 10.81206594 5.52784987 11.375 9.9375 C11.25125 10.618125 11.1275 11.29875 11 12 C10.34 11.01 9.68 10.02 9 9 C8.017588 7.7773242 7.0165487 6.56944472 6 5.375 C5.484375 4.76398438 4.96875 4.15296875 4.4375 3.5234375 C3.05647464 1.8850634 3.05647464 1.8850634 1 1 C0.67 1.99 0.34 2.98 0 4 C-0.66 3.34 -1.32 2.68 -2 2 C-1.34 2 -0.68 2 0 2 C0 1.34 0 0.68 0 0 Z " fill="#121212" transform="translate(172,417)"/>
<path d="M0 0 C1.98 0 3.96 0 6 0 C6.5625 1.9375 6.5625 1.9375 7 4 C6 5 6 5 2.9375 5.0625 C1.4834375 5.0315625 1.4834375 5.0315625 0 5 C0 3.35 0 1.7 0 0 Z " fill="#EDEDED" transform="translate(465,471)"/>
<path d="M0 0 C0.66 0.33 1.32 0.66 2 1 C0.625 3 0.625 3 -1 5 C-1.66 5 -2.32 5 -3 5 C-3.185625 5.556875 -3.37125 6.11375 -3.5625 6.6875 C-5.66360714 10.06754192 -8.70665994 11.85140381 -12 14 C-10.41332422 10.09714233 -7.86649519 7.66479018 -4.875 4.75 C-3.96492187 3.85796875 -3.05484375 2.9659375 -2.1171875 2.046875 C-1.41851562 1.37140625 -0.71984375 0.6959375 0 0 Z " fill="#0F0F0F" transform="translate(174,218)"/>
<path d="M0 0 C3.34998521 1.11666174 3.79340222 1.74694925 5.6875 4.5625 C6.12449219 5.20316406 6.56148437 5.84382813 7.01171875 6.50390625 C7.33785156 6.99761719 7.66398438 7.49132812 8 8 C7.67 8.66 7.34 9.32 7 10 C6.38125 9.195625 5.7625 8.39125 5.125 7.5625 C3.25835959 4.96125481 3.25835959 4.96125481 1 4 C1 6.97 1 9.94 1 13 C0.67 13 0.34 13 0 13 C0 8.71 0 4.42 0 0 Z " fill="#121212" transform="translate(239,469)"/>
<path d="M0 0 C2.5 1.625 2.5 1.625 5 4 C5.5625 7 5.5625 7 5 10 C3 12.375 3 12.375 1 14 C1 11 1 11 2 10 C2.04092937 7.66702567 2.04241723 5.33294775 2 3 C1.01 2.67 0.02 2.34 -1 2 C-0.67 1.34 -0.34 0.68 0 0 Z " fill="#181818" transform="translate(215,420)"/>
<path d="M0 0 C0.33 0.99 0.66 1.98 1 3 C-1.64 5.64 -4.28 8.28 -7 11 C-7.99 10.67 -8.98 10.34 -10 10 C-6.7 6.7 -3.4 3.4 0 0 Z " fill="#303030" transform="translate(430,291)"/>
<path d="M0 0 C0.70511719 0.30679687 1.41023438 0.61359375 2.13671875 0.9296875 C5.04265573 2.01594498 7.75754152 2.6097058 10.8125 3.125 C11.78832031 3.29257812 12.76414062 3.46015625 13.76953125 3.6328125 C14.50558594 3.75398438 15.24164063 3.87515625 16 4 C16 4.33 16 4.66 16 5 C11.11682489 6.01871227 7.38456255 6.65965743 2.9375 4.0625 C1.968125 3.381875 0.99875 2.70125 0 2 C0 1.34 0 0.68 0 0 Z " fill="#0C0C0C" transform="translate(394,445)"/>
<path d="M0 0 C8.35010941 2.3107221 8.35010941 2.3107221 11.0625 5.1875 C11.371875 5.785625 11.68125 6.38375 12 7 C11.34 7.66 10.68 8.32 10 9 C8.88625 7.7934375 8.88625 7.7934375 7.75 6.5625 C5.09008525 4.08394308 4.3120489 3.70972476 1 3 C0.67 2.01 0.34 1.02 0 0 Z " fill="#171717" transform="translate(372,414)"/>
<path d="M0 0 C0.33 0.99 0.66 1.98 1 3 C-1.31 5.31 -3.62 7.62 -6 10 C-6.66 9.34 -7.32 8.68 -8 8 C-5.36 5.36 -2.72 2.72 0 0 Z " fill="#2C2C2C" transform="translate(263,341)"/>
<path d="M0 0 C-1.55603771 3.81936528 -3.95604931 6.26044438 -7 9 C-7.66 9 -8.32 9 -9 9 C-7.67183131 4.6532661 -5.0855272 0 0 0 Z " fill="#1E1E1E" transform="translate(155,416)"/>
<path d="M0 0 C0.33 0.99 0.66 1.98 1 3 C-0.98 4.98 -2.96 6.96 -5 9 C-5.99 8.67 -6.98 8.34 -8 8 C-5.36 5.36 -2.72 2.72 0 0 Z " fill="#313131" transform="translate(439,282)"/>
<path d="M0 0 C0.66 0.66 1.32 1.32 2 2 C-0.31 4.31 -2.62 6.62 -5 9 C-5.66 8.34 -6.32 7.68 -7 7 C-4.69 4.69 -2.38 2.38 0 0 Z " fill="#202020" transform="translate(286,346)"/>
<path d="M0 0 C0.66 0 1.32 0 2 0 C2.66 1.98 3.32 3.96 4 6 C2.02 6 0.04 6 -2 6 C-1.34 4.02 -0.68 2.04 0 0 Z " fill="#DBDBDB" transform="translate(157,472)"/>
<path d="M0 0 C2 3 2 3 1.875 5.9375 C0.89462199 9.36882304 -0.30062548 10.73600847 -3 13 C-2.17812739 8.61667943 -1.09845718 4.32059823 0 0 Z " fill="#141414" transform="translate(178,433)"/>
<path d="M0 0 C0.33 0.99 0.66 1.98 1 3 C-0.65 4.65 -2.3 6.3 -4 8 C-4.99 7.67 -5.98 7.34 -7 7 C-4.69 4.69 -2.38 2.38 0 0 Z " fill="#303030" transform="translate(447,274)"/>
<path d="M0 0 C0 0.66 0 1.32 0 2 C-1.45635371 2.22174933 -2.91522956 2.42698698 -4.375 2.625 C-5.18710938 2.74101562 -5.99921875 2.85703125 -6.8359375 2.9765625 C-7.55007812 2.98429687 -8.26421875 2.99203125 -9 3 C-9.66 2.34 -10.32 1.68 -11 1 C-7.32589215 -0.17571451 -3.83070817 -0.07366746 0 0 Z " fill="#3A3A3A" transform="translate(168,413)"/>
<path d="M0 0 C0.33 0.99 0.66 1.98 1 3 C-0.65 4.65 -2.3 6.3 -4 8 C-4.99 7.67 -5.98 7.34 -7 7 C-4.69 4.69 -2.38 2.38 0 0 Z " fill="#313131" transform="translate(398,323)"/>
<path d="M0 0 C0.33 0.99 0.66 1.98 1 3 C-0.65 4.65 -2.3 6.3 -4 8 C-4.99 7.67 -5.98 7.34 -7 7 C-4.69 4.69 -2.38 2.38 0 0 Z " fill="#313131" transform="translate(406,315)"/>
<path d="M0 0 C2.33944736 0.28730055 4.6739143 0.61936779 7 1 C4 2 4 2 1 2 C0.67 3.65 0.34 5.3 0 7 C-0.66 6.67 -1.32 6.34 -2 6 C-1.125 1.125 -1.125 1.125 0 0 Z " fill="#222222" transform="translate(379,469)"/>
<path d="M0 0 C0.33 0 0.66 0 1 0 C1.125 6.625 1.125 6.625 0 10 C-0.66 10 -1.32 10 -2 10 C-2.25 3.375 -2.25 3.375 0 0 Z " fill="#161616" transform="translate(224,423)"/>
<path d="M0 0 C3 2 3 2 3.8125 4.4375 C4 7 4 7 2 10 C1.34 9.67 0.68 9.34 0 9 C0 6 0 3 0 0 Z " fill="#191919" transform="translate(377,421)"/>
<path d="M0 0 C2.31 0 4.62 0 7 0 C7.99 1.98 8.98 3.96 10 6 C9.01 6 8.02 6 7 6 C6.6596875 5.0409375 6.6596875 5.0409375 6.3125 4.0625 C5.14749104 1.72806339 5.14749104 1.72806339 2.375 1.25 C1.59125 1.1675 0.8075 1.085 0 1 C0 0.67 0 0.34 0 0 Z " fill="#1B1B1B" transform="translate(271,415)"/>
<path d="M0 0 C0.99 0.33 1.98 0.66 3 1 C1.35 2.98 -0.3 4.96 -2 7 C-2.66 6.34 -3.32 5.68 -4 5 C-2.68 3.35 -1.36 1.7 0 0 Z " fill="#131313" transform="translate(423,325)"/>
<path d="M0 0 C0.66 0.66 1.32 1.32 2 2 C-0.97 4.475 -0.97 4.475 -4 7 C-4 5.68 -4 4.36 -4 3 C-2 1.25 -2 1.25 0 0 Z " fill="#141414" transform="translate(442,307)"/>
<path d="M0 0 C1.485 0.99 1.485 0.99 3 2 C4.9896995 2.39013716 6.99019869 2.73202649 9 3 C8.34 3.66 7.68 4.32 7 5 C4 4.8125 4 4.8125 1 4 C0.34 3.01 -0.32 2.02 -1 1 C-0.67 0.67 -0.34 0.34 0 0 Z " fill="#3C3C3C" transform="translate(178,478)"/>
<path d="M0 0 C0.99 0.33 1.98 0.66 3 1 C1.5625 2.5625 1.5625 2.5625 -1 4 C-4.05380927 3.96846324 -6.99653222 3.53266629 -10 3 C-10 2.67 -10 2.34 -10 2 C-9.04287109 1.90912109 -9.04287109 1.90912109 -8.06640625 1.81640625 C-6.82697266 1.69072266 -6.82697266 1.69072266 -5.5625 1.5625 C-4.73878906 1.48128906 -3.91507813 1.40007812 -3.06640625 1.31640625 C-1.01337975 1.21069185 -1.01337975 1.21069185 0 0 Z " fill="#353535" transform="translate(171,446)"/>
<path d="M0 0 C0.33 0 0.66 0 1 0 C1 4.29 1 8.58 1 13 C0.01 12.67 -0.98 12.34 -2 12 C-2 11.34 -2 10.68 -2 10 C-1.34 10 -0.68 10 0 10 C0 6.7 0 3.4 0 0 Z " fill="#060606" transform="translate(249,469)"/>
<path d="M0 0 C2.5 2.3125 2.5 2.3125 5 5 C5 5.99 5 6.98 5 8 C2.5 6.25 2.5 6.25 0 4 C0 2.68 0 1.36 0 0 Z " fill="#252525" transform="translate(147,443)"/>
<path d="M0 0 C1.32 0 2.64 0 4 0 C5.98362069 2.91708924 5.9876191 4.12380904 5.625 7.75 C5.41875 8.8225 5.2125 9.895 5 11 C4.67 11 4.34 11 4 11 C3.87882812 10.37351562 3.75765625 9.74703125 3.6328125 9.1015625 C3.46523438 8.28429687 3.29765625 7.46703125 3.125 6.625 C2.96257812 5.81289063 2.80015625 5.00078125 2.6328125 4.1640625 C2.13341068 1.81326077 2.13341068 1.81326077 0 0 Z " fill="#212121" transform="translate(415,435)"/>
<path d="M0 0 C0.598125 0.474375 1.19625 0.94875 1.8125 1.4375 C4.00382924 3.16465744 4.00382924 3.16465744 7 4 C7 4.99 7 5.98 7 7 C4.08482708 5.92598892 2.22189824 5.22189824 0 3 C0 2.01 0 1.02 0 0 Z " fill="#212121" transform="translate(393,429)"/>
<path d="M0 0 C0.66 0.33 1.32 0.66 2 1 C1.54625 1.598125 1.0925 2.19625 0.625 2.8125 C-0.63295913 4.50590652 -1.82984724 6.24477086 -3 8 C-3.66 8 -4.32 8 -5 8 C-3.8141763 4.62496331 -2.72426311 2.35277269 0 0 Z " fill="#D5D5D5" transform="translate(156,422)"/>
<path d="M0 0 C4 4.625 4 4.625 4 8 C2.35 6.68 0.7 5.36 -1 4 C-0.67 2.68 -0.34 1.36 0 0 Z " fill="#272727" transform="translate(331,336)"/>
<path d="M0 0 C0.33 0.99 0.66 1.98 1 3 C-0.32 4.32 -1.64 5.64 -3 7 C-3.99 6.67 -4.98 6.34 -6 6 C-4.02 4.02 -2.04 2.04 0 0 Z " fill="#2C2C2C" transform="translate(282,322)"/>
<path d="M0 0 C2.5 2.3125 2.5 2.3125 5 5 C5 5.99 5 6.98 5 8 C2.5 5.6875 2.5 5.6875 0 3 C0 2.01 0 1.02 0 0 Z " fill="#111111" transform="translate(149,438)"/>
<path d="M0 0 C1.54571278 2.31856917 2.79618552 4.50638429 4 7 C3.01 7 2.02 7 1 7 C-1 4 -1 4 -0.625 1.8125 C-0.41875 1.214375 -0.2125 0.61625 0 0 Z " fill="#111111" transform="translate(435,439)"/>
<path d="M0 0 C0.66 0 1.32 0 2 0 C1.1875 2.9375 1.1875 2.9375 0 6 C-0.99 6.33 -1.98 6.66 -3 7 C-1.125 1.125 -1.125 1.125 0 0 Z " fill="#1E1E1E" transform="translate(300,421)"/>
<path d="M0 0 C0.66 0 1.32 0 2 0 C1.1875 2.9375 1.1875 2.9375 0 6 C-0.99 6.33 -1.98 6.66 -3 7 C-1.125 1.125 -1.125 1.125 0 0 Z " fill="#1D1D1D" transform="translate(506,416)"/>
<path d="M0 0 C1.32 0.33 2.64 0.66 4 1 C1.03 3.475 1.03 3.475 -2 6 C-2.66 5.67 -3.32 5.34 -4 5 C-2.68 3.35 -1.36 1.7 0 0 Z " fill="#161616" transform="translate(395,416)"/>
<path d="M0 0 C0.66 0.66 1.32 1.32 2 2 C-0.97 4.475 -0.97 4.475 -4 7 C-4 4 -4 4 -2 1.8125 C-1.34 1.214375 -0.68 0.61625 0 0 Z " fill="#161616" transform="translate(387,362)"/>
<path d="M0 0 C0.66 0.99 1.32 1.98 2 3 C0.68 4.32 -0.64 5.64 -2 7 C-2.99 6.67 -3.98 6.34 -5 6 C-3.35 4.02 -1.7 2.04 0 0 Z " fill="#2E2E2E" transform="translate(297,306)"/>
<path d="M0 0 C0.99 0.33 1.98 0.66 3 1 C1.35 2.65 -0.3 4.3 -2 6 C-2.33 5.34 -2.66 4.68 -3 4 C-2.01 2.68 -1.02 1.36 0 0 Z " fill="#111111" transform="translate(455,293)"/>
<path d="M0 0 C1.98 1.65 3.96 3.3 6 5 C5.34 5.66 4.68 6.32 4 7 C2.35 5.02 0.7 3.04 -1 1 C-0.67 0.67 -0.34 0.34 0 0 Z " fill="#313131" transform="translate(166,262)"/>
</svg>
